<?xml version="1.0" encoding="UTF-8" standalone="no"?>
<svg
   xmlns:dc="http://purl.org/dc/elements/1.1/"
   xmlns:cc="http://creativecommons.org/ns#"
   xmlns:rdf="http://www.w3.org/1999/02/22-rdf-syntax-ns#"
   xmlns:svg="http://www.w3.org/2000/svg"
   xmlns="http://www.w3.org/2000/svg"
   version="1.1"
   id="svg2"
   xml:space="preserve"
   width="395.59308"
   height="109.32133"
   viewBox="0 0 395.59308 109.32133"><metadata
     id="metadata8"><rdf:RDF><cc:Work
         rdf:about=""><dc:format>image/svg+xml</dc:format><dc:type
           rdf:resource="http://purl.org/dc/dcmitype/StillImage" /><dc:title></dc:title></cc:Work></rdf:RDF></metadata><defs
     id="defs6"><clipPath
       clipPathUnits="userSpaceOnUse"
       id="clipPath18"><path
         d="M 0,155.905 H 368.504 V 0 H 0 Z"
         id="path16" /></clipPath></defs><g
     style="fill:#333333"
     transform="matrix(1.3333333,0,0,-1.3333333,1.5400298,80.846669)"
     id="g20"><path
       id="path22"
       style="fill:#333333;fill-opacity:1;fill-rule:nonzero;stroke:none"
       d="m 0,0 c 2.275,-1.705 6.987,-4.467 13.813,-4.467 8.855,0 14.787,5.115 14.787,12.104 0,13.977 -21.205,11.051 -21.205,19.256 0,3.496 3.004,5.201 6.904,5.201 3.901,0 6.663,-1.381 8.369,-2.355 1.544,-0.733 2.764,-0.571 3.575,0.892 l 0.733,1.219 c 0.811,1.463 0.568,2.844 -0.895,3.576 -1.95,1.219 -5.687,3.168 -11.375,3.168 -8.044,0 -14.869,-4.062 -14.869,-11.863 0,-13.893 21.207,-11.213 21.207,-19.256 0,-3.495 -2.926,-5.444 -6.987,-5.444 C 9.263,2.031 5.85,4.143 3.981,5.363 2.355,6.256 1.299,6.176 0.243,4.795 L -0.568,3.656 C -1.463,2.275 -1.381,0.895 0,0" /></g><g
     style="fill:#333333"
     transform="matrix(1.3333333,0,0,-1.3333333,44.655895,70.555069)"
     id="g24"><path
       id="path26"
       style="fill:#333333;fill-opacity:1;fill-rule:nonzero;stroke:none"
       d="m 0,0 c 0,-7.719 6.581,-12.188 13.813,-12.188 9.586,0 13.406,8.614 13.406,8.614 h 0.161 c 0,0 -0.242,-0.977 -0.242,-2.52 v -2.435 c 0,-1.789 0.973,-2.684 2.679,-2.684 h 2.033 c 1.706,0 2.68,0.895 2.68,2.684 v 23.317 c 0,10.4 -5.93,16.087 -16.168,16.087 -6.257,0 -10.887,-2.111 -13.325,-3.492 C 3.574,26.569 3.331,25.27 4.144,23.725 l 0.649,-1.137 c 0.895,-1.463 2.112,-1.707 3.656,-0.974 1.869,1.056 5.201,2.599 9.262,2.599 5.039,0 8.938,-2.275 8.938,-9.019 V 14.137 H 24.536 C 16.005,14.137 0,12.756 0,0 m 7.962,0.65 c 0,7.799 10.888,8.288 16.656,8.288 H 26.73 V 7.15 c 0,-6.093 -4.225,-13.082 -11.13,-13.082 -5.038,0 -7.638,3.332 -7.638,6.582" /></g><g
     style="fill:#333333"
     transform="matrix(1.3333333,0,0,-1.3333333,106.40323,19.74707)"
     id="g28"><path
       id="path30"
       style="fill:#333333;fill-opacity:1;fill-rule:nonzero;stroke:none"
       d="m 0,0 h 2.763 c 1.706,0 2.682,0.977 2.682,2.682 v 2.681 c 0,1.787 -0.976,2.68 -2.682,2.68 H 0 c -1.787,0 -2.681,-0.893 -2.681,-2.68 V 2.682 C -2.681,0.977 -1.787,0 0,0 m -2.599,-46.635 c 0,-1.789 0.974,-2.684 2.679,-2.684 h 2.521 c 1.787,0 2.68,0.895 2.68,2.684 v 35.748 c 0,1.787 -0.893,2.682 -2.68,2.682 H 0.08 c -1.705,0 -2.679,-0.895 -2.679,-2.682 z" /></g><g
     style="fill:#333333"
     transform="matrix(1.3333333,0,0,-1.3333333,129.04389,65.786802)"
     id="g32"><path
       id="path34"
       style="fill:#333333;fill-opacity:1;fill-rule:nonzero;stroke:none"
       d="m 0,0 c 0,-10.4 7.15,-15.113 15.275,-15.113 2.195,0 3.25,0.812 3.25,2.681 v 1.707 c 0,1.868 -0.731,2.518 -2.843,2.68 -3.007,0.244 -7.8,1.463 -7.8,9.264 v 18.28 h 7.231 c 1.705,0 2.6,0.976 2.6,2.681 v 1.057 c 0,1.707 -0.895,2.681 -2.682,2.681 H 7.882 v 9.018 c 0,1.789 -0.896,2.682 -2.681,2.682 H 2.844 c -1.706,0 -2.682,-0.893 -2.682,-2.682 v -9.018 h -2.924 c -1.789,0 -2.682,-0.974 -2.682,-2.681 V 22.18 c 0,-1.705 0.893,-2.681 2.602,-2.681 H 0 Z" /></g><g
     style="fill:#333333"
     transform="matrix(1.3333333,0,0,-1.3333333,157.85896,58.096669)"
     id="g36"><path
       id="path38"
       style="fill:#333333;fill-opacity:1;fill-rule:nonzero;stroke:none"
       d="m 0,0 c 0,-12.188 8.857,-21.531 21.775,-21.531 6.58,0 11.457,2.679 13.895,4.388 1.381,0.813 1.623,2.194 0.81,3.575 l -0.73,1.218 c -0.895,1.543 -2.113,1.705 -3.656,0.893 -1.869,-1.379 -5.362,-3.248 -9.83,-3.248 -7.313,0 -13.732,4.955 -14.22,13.892 h 27.464 c 1.623,0 2.762,1.301 2.762,2.763 0,11.457 -6.338,19.582 -17.713,19.582 C 8.857,21.532 0,13.083 0,0 m 8.37,4.389 c 1.137,6.906 6.011,10.967 12.025,10.967 5.443,0 9.75,-3.736 9.994,-10.967 z" /></g><g
     style="fill:#333333"
     transform="matrix(1.3333333,0,0,-1.3333333,214.62456,58.096669)"
     id="g40"><path
       id="path42"
       style="fill:#333333;fill-opacity:1;fill-rule:nonzero;stroke:none"
       d="m 0,0 c 0,-12.35 9.02,-21.531 21.939,-21.531 7.393,0 12.35,3.168 14.625,5.037 1.301,0.894 1.543,2.195 0.731,3.576 l -0.649,1.219 c -0.976,1.543 -2.195,1.705 -3.658,0.73 -1.949,-1.461 -5.525,-3.736 -10.482,-3.736 -8.447,0 -14.463,6.418 -14.463,14.787 0,8.45 6.016,14.626 14.301,14.626 4.306,0 7.476,-1.87 9.183,-3.088 1.543,-0.895 2.68,-0.813 3.657,0.65 l 0.81,1.219 c 0.977,1.381 0.895,2.761 -0.486,3.656 -2.194,1.705 -6.662,4.387 -13.569,4.387 C 9.102,21.532 0,12.188 0,0" /></g><g
     transform="matrix(1.3333333,0,0,-1.3333333,286.27042,16.377337)"
     id="g44"><path
       id="path46"
       style="fill:#009fda;fill-opacity:1;fill-rule:nonzero;stroke:none"
       d="m 0,0 c 0,6.785 5.498,12.283 12.283,12.283 h 69.709 v -69.707 c 0,-6.785 -5.5,-12.284 -12.285,-12.284 H 0 Z" /></g><g
     transform="matrix(1.3333333,0,0,-1.3333333,303.03602,69.331069)"
     id="g48"><path
       id="path50"
       style="fill:#ffffff;fill-opacity:1;fill-rule:nonzero;stroke:none"
       d="m 0,0 c 0,-7.527 5.488,-12.771 12.773,-12.771 3.934,0 6.848,1.748 8.161,2.718 0.582,0.438 0.679,1.02 0.339,1.602 l -0.388,0.584 c -0.389,0.631 -0.924,0.728 -1.604,0.291 -1.117,-0.875 -3.351,-2.235 -6.412,-2.235 -5.051,0 -9.324,3.547 -9.469,9.762 h 17.58 c 0.729,0 1.264,0.535 1.264,1.215 0,6.945 -3.691,11.657 -10.199,11.657 C 5.439,12.823 0,8.016 0,0 m 3.545,2.43 c 0.777,4.953 4.322,7.674 8.402,7.674 3.643,0 6.752,-2.526 6.946,-7.674 z" /></g></svg>
